<svg width="48" height="54" viewBox="0 0 48 54" fill="none" xmlns="http://www.w3.org/2000/svg">
<rect x="0.5" y="0.5" width="43" height="43" rx="21.5" fill="white"/>
<path d="M22 28.75C25.3137 28.75 28 26.0637 28 22.75V21.25M22 28.75C18.6863 28.75 16 26.0637 16 22.75V21.25M22 28.75V32.5M18.25 32.5H25.75M22 25.75C20.3431 25.75 19 24.4069 19 22.75V14.5C19 12.8431 20.3431 11.5 22 11.5C23.6569 11.5 25 12.8431 25 14.5V22.75C25 24.4069 23.6569 25.75 22 25.75Z" stroke="#0F172A" stroke-width="1.5" stroke-linecap="round" stroke-linejoin="round"/>
<g filter="url(#filter0_d_597_1366)">
<rect x="32" y="34" width="12" height="12" rx="2" fill="white"/>
<path d="M40.6399 41.0167L38.4665 38.8434C38.2099 38.5867 37.7899 38.5867 37.5332 38.8434L35.3599 41.0167" stroke="black" stroke-miterlimit="10" stroke-linecap="round" stroke-linejoin="round"/>
</g>
<rect x="0.5" y="0.5" width="43" height="43" rx="21.5" stroke="black"/>
<defs>
<filter id="filter0_d_597_1366" x="28" y="34" width="20" height="20" filterUnits="userSpaceOnUse" color-interpolation-filters="sRGB">
<feFlood flood-opacity="0" result="BackgroundImageFix"/>
<feColorMatrix in="SourceAlpha" type="matrix" values="0 0 0 0 0 0 0 0 0 0 0 0 0 0 0 0 0 0 127 0" result="hardAlpha"/>
<feOffset dy="4"/>
<feGaussianBlur stdDeviation="2"/>
<feComposite in2="hardAlpha" operator="out"/>
<feColorMatrix type="matrix" values="0 0 0 0 0 0 0 0 0 0 0 0 0 0 0 0 0 0 0.25 0"/>
<feBlend mode="normal" in2="BackgroundImageFix" result="effect1_dropShadow_597_1366"/>
<feBlend mode="normal" in="SourceGraphic" in2="effect1_dropShadow_597_1366" result="shape"/>
</filter>
</defs>
</svg>
